<svg width="31" height="31" viewBox="0 0 31 31" fill="none" xmlns="http://www.w3.org/2000/svg">
<path d="M20.7494 10.741C20.7494 10.6078 20.6404 10.4988 20.5072 10.4988L18.5092 10.5079L15.5 14.0953L12.4938 10.511L10.4928 10.5019C10.3596 10.5019 10.2506 10.6078 10.2506 10.7441C10.2506 10.8016 10.2718 10.8561 10.3081 10.9015L14.2467 15.5939L10.3081 20.2832C10.2715 20.3276 10.2512 20.3831 10.2506 20.4406C10.2506 20.5738 10.3596 20.6828 10.4928 20.6828L12.4938 20.6737L15.5 17.0863L18.5062 20.6707L20.5042 20.6798C20.6374 20.6798 20.7464 20.5738 20.7464 20.4376C20.7464 20.3801 20.7252 20.3256 20.6889 20.2802L16.7563 15.5908L20.6949 10.8985C20.7312 10.8561 20.7494 10.7985 20.7494 10.741Z" fill="#666666"/>
<path d="M15.5 1.96777C8.01035 1.96777 1.9375 8.04063 1.9375 15.5303C1.9375 23.0199 8.01035 29.0928 15.5 29.0928C22.9896 29.0928 29.0625 23.0199 29.0625 15.5303C29.0625 8.04063 22.9896 1.96777 15.5 1.96777ZM15.5 26.792C9.28184 26.792 4.23828 21.7484 4.23828 15.5303C4.23828 9.31211 9.28184 4.26855 15.5 4.26855C21.7182 4.26855 26.7617 9.31211 26.7617 15.5303C26.7617 21.7484 21.7182 26.792 15.5 26.792Z" fill="#666666"/>
</svg>
