<svg width="30" height="30" viewBox="0 0 30 30" fill="none" xmlns="http://www.w3.org/2000/svg">
<path d="M17.73 30H12.27C11.9279 30.0001 11.596 29.8832 11.3295 29.6687C11.0629 29.4543 10.8777 29.1552 10.8045 28.821L10.194 25.995C9.37958 25.6382 8.60734 25.1919 7.89149 24.6645L5.13599 25.542C4.80984 25.646 4.45792 25.6353 4.13867 25.5117C3.81943 25.3881 3.55207 25.159 3.38099 24.8625L0.644994 20.136C0.475712 19.8392 0.412168 19.4937 0.464758 19.1561C0.517348 18.8185 0.682958 18.5087 0.934494 18.2775L3.07199 16.3275C2.97479 15.4442 2.97479 14.5528 3.07199 13.6695L0.934494 11.724C0.682601 11.4927 0.516766 11.1826 0.464168 10.8447C0.411569 10.5067 0.475328 10.161 0.644994 9.864L3.37499 5.1345C3.54607 4.83797 3.81343 4.60889 4.13267 4.48528C4.45192 4.36168 4.80384 4.35099 5.12999 4.455L7.88549 5.3325C8.25149 5.0625 8.63249 4.8105 9.02549 4.5825C9.40499 4.3695 9.79499 4.176 10.194 4.0035L10.806 1.1805C10.8789 0.846296 11.0637 0.547032 11.33 0.332323C11.5963 0.117615 11.9279 0.000359949 12.27 0H17.73C18.072 0.000359949 18.4037 0.117615 18.67 0.332323C18.9362 0.547032 19.1211 0.846296 19.194 1.1805L19.812 4.005C20.6254 4.3639 21.3974 4.81001 22.1145 5.3355L24.8715 4.458C25.1974 4.35437 25.549 4.36526 25.868 4.48884C26.1869 4.61243 26.454 4.84129 26.625 5.1375L29.355 9.867C29.703 10.4775 29.583 11.25 29.0655 11.7255L26.928 13.6755C27.0252 14.5588 27.0252 15.4502 26.928 16.3335L29.0655 18.2835C29.583 18.7605 29.703 19.5315 29.355 20.142L26.625 24.8715C26.4539 25.168 26.1866 25.3971 25.8673 25.5207C25.5481 25.6443 25.1961 25.655 24.87 25.551L22.1145 24.6735C21.3992 25.2005 20.6274 25.6463 19.8135 26.0025L19.194 28.821C19.1208 29.1549 18.9358 29.4538 18.6696 29.6683C18.4033 29.8827 18.0718 29.9997 17.73 30ZM14.994 9C13.4027 9 11.8766 9.63214 10.7514 10.7574C9.62613 11.8826 8.99399 13.4087 8.99399 15C8.99399 16.5913 9.62613 18.1174 10.7514 19.2426C11.8766 20.3679 13.4027 21 14.994 21C16.5853 21 18.1114 20.3679 19.2366 19.2426C20.3619 18.1174 20.994 16.5913 20.994 15C20.994 13.4087 20.3619 11.8826 19.2366 10.7574C18.1114 9.63214 16.5853 9 14.994 9Z" fill="#D6D0D0"/>
</svg>
