<svg width="36" height="36" viewBox="0 0 36 36" fill="none" xmlns="http://www.w3.org/2000/svg">
<path d="M3 21V15C3 14.6022 3.15804 14.2206 3.43934 13.9393C3.72064 13.658 4.10218 13.5 4.5 13.5H8.5455C8.8418 13.5001 9.13148 13.4124 9.378 13.248L15.6675 9.05398C15.8936 8.90312 16.1565 8.81654 16.428 8.80349C16.6995 8.79044 16.9694 8.85141 17.209 8.97988C17.4485 9.10835 17.6486 9.2995 17.788 9.5329C17.9273 9.7663 18.0006 10.0332 18 10.305V25.695C18 25.9665 17.9264 26.233 17.7868 26.466C17.6473 26.699 17.4471 26.8897 17.2076 27.0178C16.9682 27.1459 16.6985 27.2066 16.4272 27.1934C16.156 27.1803 15.8934 27.0937 15.6675 26.943L9.378 22.7505C9.13131 22.5866 8.84164 22.4995 8.5455 22.5H4.5C4.10218 22.5 3.72064 22.342 3.43934 22.0606C3.15804 21.7793 3 21.3978 3 21V21Z" stroke="white" stroke-width="2.25"/>
<path d="M24.75 11.25C24.75 11.25 27 13.5 27 17.25C27 21 24.75 23.25 24.75 23.25M29.25 6.75C29.25 6.75 33 10.5 33 17.25C33 24 29.25 27.75 29.25 27.75" stroke="white" stroke-width="2.25" stroke-linecap="round" stroke-linejoin="round"/>
</svg>
