<svg width="36" height="36" viewBox="0 0 36 36" fill="none" xmlns="http://www.w3.org/2000/svg">
<path d="M25.5 21L28.5 18M31.5 15L28.5 18M28.5 18L25.5 15M28.5 18L31.5 21" stroke="white" stroke-width="2.25" stroke-linecap="round" stroke-linejoin="round"/>
<path d="M4.5 21V15C4.5 14.6022 4.65804 14.2206 4.93934 13.9393C5.22064 13.658 5.60218 13.5 6 13.5H10.0455C10.3418 13.5001 10.6315 13.4124 10.878 13.248L17.1675 9.05398C17.3936 8.90312 17.6565 8.81654 17.928 8.80349C18.1995 8.79044 18.4694 8.85141 18.709 8.97988C18.9485 9.10835 19.1486 9.2995 19.288 9.5329C19.4273 9.7663 19.5006 10.0332 19.5 10.305V25.695C19.5 25.9665 19.4264 26.233 19.2868 26.466C19.1473 26.699 18.9471 26.8897 18.7076 27.0178C18.4682 27.1459 18.1985 27.2066 17.9272 27.1934C17.656 27.1803 17.3934 27.0937 17.1675 26.943L10.878 22.7505C10.6313 22.5866 10.3416 22.4995 10.0455 22.5H6C5.60218 22.5 5.22064 22.342 4.93934 22.0606C4.65804 21.7793 4.5 21.3978 4.5 21Z" stroke="white" stroke-width="2.25"/>
</svg>
